<?xml version="1.0" encoding="UTF-8" standalone="no"?><!-- Generator: Gravit.io --><svg xmlns="http://www.w3.org/2000/svg" xmlns:xlink="http://www.w3.org/1999/xlink" style="isolation:isolate" viewBox="295 295 32 32" width="32pt" height="32pt"><g><circle vector-effect="non-scaling-stroke" cx="311" cy="311" r="16" fill="rgb(39,36,40)"/><linearGradient id="_lgradient_0" x1="0.3833322630951343" y1="0.05551019784117628" x2="0.39361048696954337" y2="1.0225632657764285" gradientTransform="matrix(25.054,0,0,19.971,298.946,301.391)" gradientUnits="userSpaceOnUse"><stop offset="0%" stop-opacity="1" style="stop-color:rgb(255,235,130)"/><stop offset="52.083333333333336%" stop-opacity="1" style="stop-color:rgb(255,215,47)"/></linearGradient><path d=" M 298.946 301.391 C 299.894 303.693 302.081 307.137 303.971 309.285 L 304.178 308.511 C 303.278 307.38 302.388 305.771 301.864 304.497 C 303.387 305.242 305.9 305.962 306.528 306.119 C 308.64 306.69 311.689 307.162 313.918 307.282 C 314.499 307.903 314.778 308.551 315.134 309.142 L 315.593 308.753 C 315.246 308.293 314.565 307.244 313.776 306.281 C 312.954 305.236 311.12 303.126 309.084 301.688 C 307.983 302.958 307.381 303.711 306.547 305.186 L 307.646 305.392 C 307.854 305.017 308.099 304.623 308.343 304.259 L 308.953 304.493 L 308.816 303.596 C 308.877 303.516 308.94 303.429 308.996 303.359 C 310.738 304.271 312.281 305.487 313.464 306.703 C 309.072 306.719 303.309 305.011 298.946 301.391 L 298.946 301.391 Z  M 302.886 305.551 L 304.038 307.417 L 304.535 307.231 L 302.886 305.551 L 302.886 305.551 Z  M 324 306.195 C 320.438 306.471 319.152 306.867 315.166 306.867 L 315.445 307.288 C 316.604 307.449 317.81 307.608 318.763 307.671 C 317.883 308.198 316.181 309.265 315.456 309.695 C 314.165 310.435 311.879 311.822 310.09 313.343 C 308.459 312.462 307.205 311.317 305.75 310.116 L 305.63 310.658 C 307.023 312.381 309.278 314.093 312.028 315.864 C 314.79 317.585 318.056 318.743 320.522 319.02 C 319.308 315.544 318.344 312.9 317.129 310.477 L 316.143 310.85 C 317.153 312.951 318.14 314.987 318.768 317.04 C 318.041 317.002 317.088 316.69 316.246 316.437 C 317.036 316.947 317.677 317.158 318.221 317.487 C 316.901 317.258 314.622 316.298 313.342 315.498 L 315.646 316.217 C 314.627 315.613 313.819 315.126 312.839 314.368 C 312.672 314.498 312.51 314.677 312.338 314.922 C 311.978 314.805 310.832 313.858 310.608 313.711 C 312.301 312.343 313.891 311.253 315.537 310.355 C 317.147 309.461 320.922 307.555 324 306.195 L 324 306.195 Z  M 305.906 306.391 C 305.499 307.024 304.755 309.011 304.408 309.966 C 303.478 312.486 302.915 317.273 303.42 320.979 C 303.591 321.024 303.948 321.318 304.119 321.363 C 305.975 318.787 307.338 316.896 309.22 315.09 L 308.548 314.506 C 307.322 315.525 305.701 317.145 304.363 318.768 C 304.287 317.871 304.389 316.751 304.516 315.829 C 304.229 316.185 303.941 316.921 303.805 317.353 C 303.772 316.295 303.966 315.262 304.161 314.255 C 304.304 314.512 304.481 314.699 304.633 314.892 C 304.596 313.663 304.899 310.33 305.061 309.722 C 305.291 308.789 305.852 307.588 306.268 306.665 L 305.906 306.391 L 305.906 306.391 Z  M 309.482 307.044 C 309.848 307.609 310.037 308.555 309.731 309.128 C 309.591 309.379 309.592 309.629 309.694 309.865 L 310.228 309.284 L 309.996 310.288 C 310.215 310.508 310.511 310.706 310.85 310.869 C 310.829 310.441 310.657 310.275 311.006 309.905 C 311.293 309.626 311.847 309.414 311.036 308.817 C 310.804 308.639 310.649 308.179 310.509 307.914 C 310.188 307.278 309.762 307.14 309.482 307.044 Z  M 312.032 307.835 C 311.684 307.841 311.34 307.863 311.044 307.884 L 311.18 308.273 C 311.744 308.218 313.469 308.374 313.408 308.786 C 313.352 309.192 311.939 309.98 311.131 310.146 L 311.169 310.403 C 312.185 310.205 314.197 309.276 314.185 308.66 C 314.173 307.94 313.079 307.817 312.032 307.835 L 312.032 307.835 Z  M 309.388 308.257 C 308.372 308.454 306.199 309.166 306.215 309.781 C 306.231 310.369 308.33 310.517 309.357 310.559 L 309.159 310.046 C 308.595 310.101 306.988 309.853 306.993 309.657 C 306.998 309.439 308.618 308.68 309.427 308.514 L 309.388 308.257 Z  M 306.65 313.483 L 306.277 313.514 L 306.246 314.79 L 306.65 313.483 Z  M 316.667 313.514 C 316.501 313.596 316.336 313.679 316.17 313.762 C 317.01 314.519 317.538 315.276 318.223 316.033 C 317.828 315.193 317.092 314.042 316.667 313.514 Z  M 314.614 313.888 C 314.459 314.054 314.303 314.22 314.147 314.385 C 315.215 314.738 316.346 315.401 317.258 315.909 C 316.595 315.297 315.589 314.437 314.614 313.888 Z " fill-rule="evenodd" fill="url(#_lgradient_0)"/></g></svg>